<svg width="888" height="405" viewBox="0 0 888 405" fill="none" xmlns="http://www.w3.org/2000/svg">
<g clip-path="url(#clip0_361_384)">
<path d="M150 389.5V327.5H21.5V242.5L180 40.5H245V242.5H289V327.5H245V389.5H150ZM115 242.5H161V182.5L115 242.5ZM582.969 179.5C582.969 208.833 577.135 235 565.469 258C553.802 280.667 537.969 298.5 517.969 311.5C498.302 324.5 475.802 331 450.469 331C425.469 331 402.969 324.5 382.969 311.5C362.969 298.5 347.135 280.667 335.469 258C323.802 235 317.969 208.833 317.969 179.5C317.969 150.167 323.802 124.167 335.469 101.5C347.135 78.5 362.969 60.5 382.969 47.5C402.969 34.1667 425.635 27.5 450.969 27.5C475.969 27.5 498.302 34.1667 517.969 47.5C537.969 60.5 553.802 78.5 565.469 101.5C577.135 124.167 582.969 150.167 582.969 179.5ZM486.969 179.5C486.969 166.5 485.302 155.167 481.969 145.5C478.969 135.833 474.635 128.333 468.969 123C463.635 117.333 457.469 114.5 450.469 114.5C443.135 114.5 436.635 117.333 430.969 123C425.302 128.333 420.802 135.833 417.469 145.5C414.469 155.167 412.969 166.5 412.969 179.5C412.969 192.5 414.469 203.833 417.469 213.5C420.802 223.167 425.302 230.667 430.969 236C436.635 241.333 443.135 244 450.469 244C457.469 244 463.635 241.333 468.969 236C474.635 230.667 478.969 223.167 481.969 213.5C485.302 203.833 486.969 192.5 486.969 179.5ZM730.098 389.5V327.5H601.598V242.5L760.098 40.5H825.098V242.5H869.098V327.5H825.098V389.5H730.098ZM695.098 242.5H741.098V182.5L695.098 242.5Z" fill="url(#paint0_linear_361_384)"/>
</g>
<g clip-path="url(#clip1_361_384)">
<path d="M136 369.5V307.5H7.5V222.5L166 20.5H231V222.5H275V307.5H231V369.5H136ZM101 222.5H147V162.5L101 222.5ZM568.969 159.5C568.969 188.833 563.135 215 551.469 238C539.802 260.667 523.969 278.5 503.969 291.5C484.302 304.5 461.802 311 436.469 311C411.469 311 388.969 304.5 368.969 291.5C348.969 278.5 333.135 260.667 321.469 238C309.802 215 303.969 188.833 303.969 159.5C303.969 130.167 309.802 104.167 321.469 81.5C333.135 58.5 348.969 40.5 368.969 27.5C388.969 14.1667 411.635 7.5 436.969 7.5C461.969 7.5 484.302 14.1667 503.969 27.5C523.969 40.5 539.802 58.5 551.469 81.5C563.135 104.167 568.969 130.167 568.969 159.5ZM472.969 159.5C472.969 146.5 471.302 135.167 467.969 125.5C464.969 115.833 460.635 108.333 454.969 103C449.635 97.3333 443.469 94.5 436.469 94.5C429.135 94.5 422.635 97.3333 416.969 103C411.302 108.333 406.802 115.833 403.469 125.5C400.469 135.167 398.969 146.5 398.969 159.5C398.969 172.5 400.469 183.833 403.469 193.5C406.802 203.167 411.302 210.667 416.969 216C422.635 221.333 429.135 224 436.469 224C443.469 224 449.635 221.333 454.969 216C460.635 210.667 464.969 203.167 467.969 193.5C471.302 183.833 472.969 172.5 472.969 159.5ZM716.098 369.5V307.5H587.598V222.5L746.098 20.5H811.098V222.5H855.098V307.5H811.098V369.5H716.098ZM681.098 222.5H727.098V162.5L681.098 222.5Z" fill="url(#paint1_linear_361_384)"/>
</g>
<defs>
<linearGradient id="paint0_linear_361_384" x1="451" y1="-144" x2="451" y2="405" gradientUnits="userSpaceOnUse">
<stop stop-color="white"/>
<stop offset="1" stop-color="#D2D2D2"/>
</linearGradient>
<linearGradient id="paint1_linear_361_384" x1="437" y1="-164" x2="437" y2="385" gradientUnits="userSpaceOnUse">
<stop stop-color="#00ACF8"/>
<stop offset="1" stop-color="#98DFFF"/>
</linearGradient>
<clipPath id="clip0_361_384">
<rect width="874" height="385" fill="white" transform="translate(14 20)"/>
</clipPath>
<clipPath id="clip1_361_384">
<rect width="874" height="385" fill="white"/>
</clipPath>
</defs>
</svg>
