<svg width="36" height="36" viewBox="0 0 36 36" fill="none" xmlns="http://www.w3.org/2000/svg">
<circle cx="17.4706" cy="17.4706" r="16.6387" transform="matrix(1 0 0 -1 0.0673828 35.7937)" fill="url(#paint0_radial_315_1519)" stroke="#FFBA57" stroke-width="1.66387"/>
<path d="M21.7487 18.3732C21.8645 18.2575 21.9564 18.1201 22.0191 17.9689C22.0819 17.8174 22.1142 17.6551 22.1142 17.4911C22.1142 17.3272 22.0819 17.1649 22.0191 17.0134C21.9563 16.862 21.8643 16.7244 21.7482 16.6086L17.8326 12.6929L17.5384 12.3988L17.2443 12.6929L13.3284 16.6088L13.6225 16.903L13.3284 16.6088C13.2125 16.7247 13.1206 16.8623 13.0579 17.0136L13.4411 17.1724L13.0579 17.0136C12.9952 17.165 12.9629 17.3273 12.9629 17.4911C12.9629 17.655 12.9952 17.8173 13.0579 17.9686C13.1206 18.12 13.2125 18.2576 13.3284 18.3735C13.4443 18.4893 13.5818 18.5812 13.7332 18.6439C13.8846 18.7066 14.0469 18.7389 14.2107 18.7389C14.3746 18.7389 14.5368 18.7066 14.6882 18.6439C14.8396 18.5812 14.9772 18.4893 15.093 18.3735L16.2905 17.1759V22.4827C16.2905 22.8137 16.422 23.1311 16.656 23.3651C16.8901 23.5992 17.2075 23.7306 17.5384 23.7306C17.8694 23.7306 18.1868 23.5992 18.4208 23.3651C18.6549 23.1311 18.7863 22.8137 18.7863 22.4827V17.1759L19.983 18.3726C19.9832 18.3728 19.9833 18.3729 19.9835 18.3731C20.0991 18.4893 20.2366 18.5815 20.3879 18.6444C20.5395 18.7075 20.702 18.7399 20.8662 18.7399C21.0303 18.7399 21.1929 18.7075 21.3444 18.6444C21.4957 18.5815 21.6331 18.4893 21.7487 18.3732ZM21.7487 18.3732C21.7486 18.3734 21.7484 18.3735 21.7482 18.3737L21.4544 18.0794L21.7493 18.3726C21.7491 18.3728 21.7489 18.373 21.7487 18.3732Z" fill="white" stroke="#FCB500" stroke-width="0.831933"/>
<defs>
<radialGradient id="paint0_radial_315_1519" cx="0" cy="0" r="1" gradientUnits="userSpaceOnUse" gradientTransform="translate(17.4706 17.4706) rotate(-90) scale(17.4706)">
<stop offset="0.412935" stop-color="#FFD451"/>
<stop offset="1" stop-color="#FFB800"/>
</radialGradient>
</defs>
</svg>
