<svg width="36" height="36" viewBox="0 0 36 36" fill="none" xmlns="http://www.w3.org/2000/svg">
<circle cx="17.705" cy="17.7931" r="16.6387" fill="url(#paint0_radial_333_2)" stroke="#FFBA57" stroke-width="1.66387"/>
<path d="M21.9157 17.7433C22.0315 17.859 22.1234 17.9964 22.1861 18.1476C22.2489 18.299 22.2812 18.4614 22.2812 18.6253C22.2812 18.7893 22.2489 18.9516 22.1861 19.103C22.1233 19.2545 22.0313 19.392 21.9152 19.5079L17.9996 23.4235L17.7054 23.7177L17.4113 23.4235L13.4954 19.5076L13.7895 19.2135L13.4954 19.5076C13.3795 19.3918 13.2876 19.2542 13.2249 19.1028L13.6081 18.9441L13.2249 19.1028C13.1622 18.9514 13.1299 18.7892 13.1299 18.6253C13.1299 18.4615 13.1622 18.2992 13.2249 18.1478C13.2876 17.9964 13.3795 17.8589 13.4954 17.743C13.6113 17.6271 13.7488 17.5352 13.9002 17.4725C14.0516 17.4098 14.2138 17.3775 14.3777 17.3775C14.5416 17.3775 14.7038 17.4098 14.8552 17.4725C15.0066 17.5352 15.1441 17.6271 15.26 17.743L16.4575 18.9405V13.6337C16.4575 13.3028 16.589 12.9853 16.823 12.7513C17.0571 12.5173 17.3745 12.3858 17.7054 12.3858C18.0364 12.3858 18.3538 12.5173 18.5878 12.7513C18.8219 12.9853 18.9533 13.3028 18.9533 13.6337V18.9405L20.15 17.7438C20.1502 17.7437 20.1503 17.7435 20.1505 17.7434C20.2661 17.6272 20.4036 17.535 20.5549 17.472C20.7065 17.409 20.869 17.3766 21.0332 17.3766C21.1973 17.3766 21.3598 17.409 21.5114 17.472C21.6627 17.535 21.8001 17.6271 21.9157 17.7433ZM21.9157 17.7433C21.9156 17.7431 21.9154 17.7429 21.9152 17.7428L21.6214 18.0371L21.9163 17.7438C21.9161 17.7437 21.9159 17.7435 21.9157 17.7433Z" fill="white" stroke="#FCB500" stroke-width="0.831933"/>
<defs>
<radialGradient id="paint0_radial_333_2" cx="0" cy="0" r="1" gradientUnits="userSpaceOnUse" gradientTransform="translate(17.705 17.7931) rotate(-90) scale(17.4706)">
<stop offset="0.412935" stop-color="#FFD451"/>
<stop offset="1" stop-color="#FFB800"/>
</radialGradient>
</defs>
</svg>
