<svg width="149" height="135" viewBox="0 0 149 135" fill="none" xmlns="http://www.w3.org/2000/svg">
<g filter="url(#filter0_d_7_21)">
<ellipse cx="102.504" cy="46.5" rx="31" ry="30.5" fill="#EFB953"/>
</g>
<g filter="url(#filter1_d_7_21)">
<ellipse cx="102.504" cy="46.5" rx="31" ry="30.5" fill="#EFB953"/>
</g>
<g filter="url(#filter2_d_7_21)">
<ellipse cx="102.504" cy="46.5" rx="31" ry="30.5" fill="#EFB953"/>
</g>
<ellipse cx="105.504" cy="57.0392" rx="8.3507" ry="8.4027" transform="rotate(-12.7568 105.504 57.0392)" fill="#E8B03F"/>
<ellipse cx="105.504" cy="57.0392" rx="8.3507" ry="8.4027" transform="rotate(-12.7568 105.504 57.0392)" fill="#E8B03F"/>
<ellipse cx="105.504" cy="57.0392" rx="8.3507" ry="8.4027" transform="rotate(-12.7568 105.504 57.0392)" fill="#E8B03F"/>
<path d="M53.0042 26.5C33.0042 31.7 26.6708 49.3333 26.0042 57.5C5.60417 59.9 0.837506 77.5 1.00417 86C1.40417 105.2 17.1708 111.333 25.0042 112H127.004C142.604 112.4 146.837 98.8333 147.004 91.5C147.404 71.5 128.838 70.1667 119.504 72C118.704 58.4 104.504 56.6667 97.5042 57.5C98.5042 43.5 78.0042 20 53.0042 26.5Z" fill="url(#paint0_linear_7_21)"/>
<g clip-path="url(#clip0_7_21)">
<path d="M14.5676 52.3734C14.1334 52.5961 13.6406 52.2058 13.7284 51.7074L14.6621 46.3861L10.6987 42.6106C10.3286 42.2574 10.521 41.6116 11.0171 41.5419L16.5274 40.7589L18.9844 35.891C19.206 35.4523 19.8056 35.4523 20.0272 35.891L22.4842 40.7589L27.9945 41.5419C28.4906 41.6116 28.683 42.2574 28.3117 42.6106L24.3495 46.3861L25.2832 51.7074C25.371 52.2058 24.8782 52.5961 24.444 52.3734L19.5041 49.8354L14.5665 52.3734H14.5676Z" fill="white"/>
</g>
<path d="M83.0243 128.911C82.4899 129.221 81.8836 128.677 81.9916 127.983L83.1406 120.575L78.2636 115.318C77.8082 114.827 78.0449 113.928 78.6554 113.831L85.4358 112.74L88.4591 105.963C88.7318 105.352 89.4696 105.352 89.7424 105.963L92.7657 112.74L99.5461 113.831C100.157 113.928 100.393 114.827 99.9365 115.318L95.0609 120.575L96.2099 127.983C96.3179 128.677 95.7115 129.221 95.1772 128.911L89.0987 125.377L83.0229 128.911H83.0243Z" fill="white"/>
<path d="M63.4099 105.458C63.1427 105.621 62.8396 105.336 62.8936 104.972L63.468 101.092L61.0296 98.3384C60.8019 98.0808 60.9202 97.6099 61.2255 97.559L64.6156 96.988L66.1273 93.438C66.2637 93.118 66.6326 93.118 66.7689 93.438L68.2806 96.988L71.6708 97.559C71.976 97.6099 72.0944 98.0808 71.866 98.3384L69.4282 101.092L70.0027 104.972C70.0567 105.336 69.7535 105.621 69.4864 105.458L66.4471 103.607L63.4092 105.458H63.4099Z" fill="white"/>
<path d="M93.7424 97.6053C93.3538 97.8415 92.9128 97.4274 92.9914 96.8988L93.827 91.2542L90.2801 87.2493C89.9489 86.8746 90.121 86.1896 90.565 86.1156L95.4962 85.285L97.695 80.1213C97.8933 79.6559 98.43 79.6559 98.6283 80.1213L100.827 85.285L105.758 86.1156C106.202 86.1896 106.374 86.8746 106.042 87.2493L102.496 91.2542L103.332 96.8988C103.41 97.4274 102.97 97.8415 102.581 97.6053L98.1601 94.913L93.7414 97.6053H93.7424Z" fill="white"/>
<ellipse cx="117.07" cy="52.2138" rx="2.19872" ry="2.21241" transform="rotate(-12.7568 117.07 52.2138)" fill="#E8B03F"/>
<ellipse cx="117.07" cy="52.2138" rx="2.19872" ry="2.21241" transform="rotate(-12.7568 117.07 52.2138)" fill="#E8B03F"/>
<ellipse cx="117.07" cy="52.2138" rx="2.19872" ry="2.21241" transform="rotate(-12.7568 117.07 52.2138)" fill="#E8B03F"/>
<ellipse cx="115.093" cy="42.6112" rx="4.66745" ry="4.69652" transform="rotate(-12.7568 115.093 42.6112)" fill="#E8B03F"/>
<ellipse cx="115.093" cy="42.6112" rx="4.66745" ry="4.69652" transform="rotate(-12.7568 115.093 42.6112)" fill="#E8B03F"/>
<ellipse cx="115.093" cy="42.6112" rx="4.66745" ry="4.69652" transform="rotate(-12.7568 115.093 42.6112)" fill="#E8B03F"/>
<ellipse cx="86.5042" cy="28.9263" rx="1.6901" ry="1.59239" transform="rotate(-12.7568 86.5042 28.9263)" fill="#E8B03F"/>
<ellipse cx="86.5042" cy="28.9263" rx="1.6901" ry="1.59239" transform="rotate(-12.7568 86.5042 28.9263)" fill="#E8B03F"/>
<ellipse cx="86.5042" cy="28.9263" rx="1.6901" ry="1.59239" transform="rotate(-12.7568 86.5042 28.9263)" fill="#E8B03F"/>
<ellipse cx="120.004" cy="28.8732" rx="2.94398" ry="2.84715" transform="rotate(-12.7568 120.004 28.8732)" fill="#E8B03F"/>
<ellipse cx="120.004" cy="28.8732" rx="2.94398" ry="2.84715" transform="rotate(-12.7568 120.004 28.8732)" fill="#E8B03F"/>
<ellipse cx="120.004" cy="28.8732" rx="2.94398" ry="2.84715" transform="rotate(-12.7568 120.004 28.8732)" fill="#E8B03F"/>
<g filter="url(#filter3_f_7_21)">
<path d="M121.396 71.5603C111.29 82.2712 93.1172 81.538 80.8071 69.9225C68.4969 58.307 66.7106 40.2079 76.8171 29.4969C86.9236 18.786 78.6946 26.613 91.0047 38.2285C103.315 49.8439 131.503 60.8493 121.396 71.5603Z" fill="#FEDD9D" fill-opacity="0.54"/>
</g>
<defs>
<filter id="filter0_d_7_21" x="56.5042" y="0" width="92" height="91" filterUnits="userSpaceOnUse" color-interpolation-filters="sRGB">
<feFlood flood-opacity="0" result="BackgroundImageFix"/>
<feColorMatrix in="SourceAlpha" type="matrix" values="0 0 0 0 0 0 0 0 0 0 0 0 0 0 0 0 0 0 127 0" result="hardAlpha"/>
<feMorphology radius="7" operator="dilate" in="SourceAlpha" result="effect1_dropShadow_7_21"/>
<feOffset dy="-1"/>
<feGaussianBlur stdDeviation="4"/>
<feComposite in2="hardAlpha" operator="out"/>
<feColorMatrix type="matrix" values="0 0 0 0 0.786849 0 0 0 0 0.675234 0 0 0 0 0.279508 0 0 0 0.25 0"/>
<feBlend mode="normal" in2="BackgroundImageFix" result="effect1_dropShadow_7_21"/>
<feBlend mode="normal" in="SourceGraphic" in2="effect1_dropShadow_7_21" result="shape"/>
</filter>
<filter id="filter1_d_7_21" x="56.5042" y="0" width="92" height="91" filterUnits="userSpaceOnUse" color-interpolation-filters="sRGB">
<feFlood flood-opacity="0" result="BackgroundImageFix"/>
<feColorMatrix in="SourceAlpha" type="matrix" values="0 0 0 0 0 0 0 0 0 0 0 0 0 0 0 0 0 0 127 0" result="hardAlpha"/>
<feMorphology radius="7" operator="dilate" in="SourceAlpha" result="effect1_dropShadow_7_21"/>
<feOffset dy="-1"/>
<feGaussianBlur stdDeviation="4"/>
<feComposite in2="hardAlpha" operator="out"/>
<feColorMatrix type="matrix" values="0 0 0 0 0.786849 0 0 0 0 0.675234 0 0 0 0 0.279508 0 0 0 0.25 0"/>
<feBlend mode="normal" in2="BackgroundImageFix" result="effect1_dropShadow_7_21"/>
<feBlend mode="normal" in="SourceGraphic" in2="effect1_dropShadow_7_21" result="shape"/>
</filter>
<filter id="filter2_d_7_21" x="56.5042" y="0" width="92" height="91" filterUnits="userSpaceOnUse" color-interpolation-filters="sRGB">
<feFlood flood-opacity="0" result="BackgroundImageFix"/>
<feColorMatrix in="SourceAlpha" type="matrix" values="0 0 0 0 0 0 0 0 0 0 0 0 0 0 0 0 0 0 127 0" result="hardAlpha"/>
<feMorphology radius="7" operator="dilate" in="SourceAlpha" result="effect1_dropShadow_7_21"/>
<feOffset dy="-1"/>
<feGaussianBlur stdDeviation="4"/>
<feComposite in2="hardAlpha" operator="out"/>
<feColorMatrix type="matrix" values="0 0 0 0 0.786849 0 0 0 0 0.675234 0 0 0 0 0.279508 0 0 0 0.25 0"/>
<feBlend mode="normal" in2="BackgroundImageFix" result="effect1_dropShadow_7_21"/>
<feBlend mode="normal" in="SourceGraphic" in2="effect1_dropShadow_7_21" result="shape"/>
</filter>
<filter id="filter3_f_7_21" x="66.2667" y="20.419" width="61.2759" height="62.7184" filterUnits="userSpaceOnUse" color-interpolation-filters="sRGB">
<feFlood flood-opacity="0" result="BackgroundImageFix"/>
<feBlend mode="normal" in="SourceGraphic" in2="BackgroundImageFix" result="shape"/>
<feGaussianBlur stdDeviation="2" result="effect1_foregroundBlur_7_21"/>
</filter>
<linearGradient id="paint0_linear_7_21" x1="74.0053" y1="25.3872" x2="76.0042" y2="112" gradientUnits="userSpaceOnUse">
<stop stop-color="white"/>
<stop offset="1" stop-color="#666D81"/>
</linearGradient>
<clipPath id="clip0_7_21">
<rect width="18" height="18" fill="white" transform="translate(10.5042 35)"/>
</clipPath>
</defs>
</svg>
