<svg width="9" height="9" viewBox="0 0 9 9" fill="none" xmlns="http://www.w3.org/2000/svg">
<path d="M8.05124 8.06472L5.64292 5.25872C6.08739 4.76654 6.35502 4.14374 6.40631 3.47112C6.46772 2.66599 6.21107 1.88708 5.68627 1.27453C5.16147 0.661976 4.42841 0.291026 3.62428 0.229697C2.82015 0.168368 2.03923 0.424861 1.42768 0.949738C0.815132 1.47454 0.444258 2.20659 0.382852 3.01173C0.321523 3.81586 0.578017 4.59678 1.10289 5.20833C1.62769 5.82088 2.35975 6.19175 3.16489 6.25316C3.83751 6.30446 4.49268 6.1343 5.0465 5.77062L7.45489 8.57561C7.46195 8.58384 7.47057 8.5906 7.48024 8.59551C7.48992 8.60041 7.50046 8.60336 7.51128 8.60418C7.52209 8.60501 7.53296 8.60369 7.54327 8.60031C7.55358 8.59693 7.56312 8.59156 7.57135 8.58449L8.04236 8.18117C8.05059 8.17411 8.05735 8.1655 8.06225 8.15582C8.06715 8.14615 8.0701 8.1356 8.07093 8.12479C8.07175 8.11397 8.07044 8.1031 8.06706 8.0928C8.06368 8.08249 8.05831 8.07295 8.05124 8.06472ZM4.8635 4.9529C4.40545 5.34509 3.82341 5.53597 3.22308 5.49019C2.62274 5.4444 2.07638 5.16746 1.68311 4.71034C1.29092 4.2523 1.10004 3.67026 1.14582 3.06992C1.19161 2.46958 1.46863 1.92222 1.92567 1.52995C2.38371 1.13776 2.96575 0.946882 3.56609 0.992668C4.16643 1.03845 4.71387 1.31447 5.10606 1.77251C5.49825 2.23056 5.68913 2.8126 5.64334 3.41293C5.59756 4.01327 5.32054 4.56063 4.8635 4.9529Z" fill="#ffffff" fill-opacity="0.83"/>
</svg>
